<svg width="88" height="72" viewBox="0 0 88 72" fill="none" xmlns="http://www.w3.org/2000/svg">
<path d="M41.03 71.37C38.13 71.37 35.23 70.26 33.02 68.05L7.26 42.32C2.58 37.63 0 31.41 0 24.79C0 18.17 2.58 11.94 7.26 7.26C11.94 2.58 18.17 0 24.8 0C30.8 0 36.58 2.17 41.09 6.11L43.96 8.61L46.84 6.1C51.33 2.17 57.12 0 63.12 0C69.75 0 75.97 2.58 80.66 7.26C85.34 11.93 87.93 18.16 87.93 24.79C87.93 31.38 85.38 37.57 80.74 42.25L70.63 52.67C66.27 57.17 59.1 57.29 54.6 52.93C50.1 48.58 49.98 41.4 54.34 36.9L64.49 26.41C64.54 26.36 64.58 26.32 64.63 26.27C65.14 25.76 65.25 25.18 65.25 24.78C65.25 24.38 65.14 23.8 64.63 23.3C64.11 22.78 63.52 22.67 63.12 22.67C62.6 22.67 62.14 22.84 61.75 23.18L51.4 32.2C47.13 35.92 40.77 35.92 36.5 32.2L26.17 23.2C25.77 22.85 25.31 22.68 24.79 22.68C24.39 22.68 23.8 22.79 23.29 23.3C22.47 24.12 22.47 25.46 23.29 26.28L49.04 52.01C53.47 56.44 53.47 63.62 49.05 68.05C46.83 70.26 43.93 71.37 41.03 71.37Z" fill="#FCBAD7"/>
</svg>
